<svg xmlns="http://www.w3.org/2000/svg" version="1.1" id="Layer_1" x="0" y="0" viewBox="0 0 823 823" style="enable-background:new 0 0 823 823" xml:space="preserve"><style>.st1{fill:#dba17b}.st2{fill:#ffbe55}.st3{fill:#0e538c}.st4{fill:#0b4870}.st5{fill:#ffe3ca}.st8{fill:#fcd2b1}.st11{fill:#d3d3d3}.st12{fill:#f2f2f2}.st13{fill:#2a94f4}</style><path d="M262.8 89.9c87.1-57.4 209.5-45.7 286.5 39.5 42.1 46.6 59.2 110.7 102.9 156.3 49.2 51.3 108 101.2 130.3 171.2 23.7 74.4 2.9 159.7-50.1 216.6-64.5 69.2-159.3 48.4-248.9 47.3-366.9-4.6-639.6-249.5-292.6-551.4 29-25.4 43.1-60.6 71.9-79.5z" style="fill:#cce9ff"/><path class="st1" d="M716.6 310.8c-1.9.6-11.9 8-11.9 8l-11.8 7.6-.5-4.3s-4.8-9.6-10.7-9.2c0 0 7.1 8.7 8 14.5.9 5.8 1.3 9.8 1.3 9.8l-7.8 7.7 13 16.7 30.5-22.8s-8.2-28.6-10.1-28z"/><path class="st2" d="m722.7 310.8-5.3 42.5-21.2.5-5.1-43z"/><path class="st3" d="M727.3 311.4h-40v-4.2h3.8v-6.6l32.5 4.8.1 2.4h3.6v4.1"/><path class="st1" d="M724.6 339.6c7.4.7-1.9-19.6-1.9-19.6s-20-1.4-20.2-.3c-.2 1.1-.1 2.9 1.5 3.3 1.6.4 14.1 2.1 14.1 2.1s-13 .6-12.8 2c.4 2.1 1.9 2.3 5.8 2.9 3.3.5 10.5.7 10.5.7s-13.7.3-13.4 1.2c.3.9-.6 3.7 4.1 3 10.7-1.4 12.3 4.7 12.3 4.7z"/><path class="st4" d="M634.6 421.3s20.3 143.5 10.9 174-13.1 58-13.1 58l-47.2-13.8s15.6-71.8 18-85.6c2.3-13.8-21.8-125.9-21.8-125.9l53.2-6.7z"/><path class="st4" d="M612.3 431.6 590 662.3h-45.1s14.6-244.2 12-246.3c-2.6-1.9 55.4 15.6 55.4 15.6zM630.1 291s4.8 77.4 15.1 74.6c10.4-2.7 38.2-22.9 38.2-22.9l16.9 18.6s-51.5 57.3-72.7 33.9c-21.1-23.5 2.5-104.2 2.5-104.2zM616.2 700.9l3.1-15.6-32.9-13.2-5.2 23.2 1.8.3c7.4 3.4 43.3 20 48.9 20.5 6.2.6-15.7-15.2-15.7-15.2z"/><path class="st5" d="m538 473.8 3.6 5.2s1.7 3.5 5.9 8.8c1.1 1.4 2.4 2.6 3.9 3.5 1.8 1.1 4.3 2.5 5.9 2.9 2 .4 2.4 3 .7 3.8-1.7.7-7.1-.3-12.3-4.3-5.2-3.9-2.8 6-1.9 9.7.8 3.6 2.8 15 1.9 16.2-1.3 1.7-3.4.5-4.1-3.1-.7-3.7-3.7-14.5-5.6-13.9-1.9.5 2.5 19 2.5 19s1.6 3.8-.6 4.5c-3.9 1.2-7.2-18.8-7.4-20.7-.2-1.3-2.3-.8-2 .6.3 1.5 4.8 18.3.9 19.6-3.1 1-2.8-16.4-5.7-19.4-2.9-3 1.2 13.2-1.8 14-1.1.3-2 .4-3-9.3-1-9.9.6-37 .6-37l18.8.2"/><path class="st1" d="M603.3 265c-.4-3.1 1.2-16 1.2-16s11.8-.9 12.9-12.5c1.1-11.7 1.2-38.7 1.2-38.7l-21.1-11.2-24.2 17.1-5.5 12.8L575 247v15.3l28.3 2.7z"/><path d="M604.5 249s-7.9-.2-15.3-5.7c0 0 3.2 8.7 15 8.6l.3-2.9z" style="fill:#c68c6b"/><path class="st3" d="M568.2 229.3c3.2 7.1 5.1 17.5 5.1 17.5 1.7 3.2 2.3-7 2.3-7s1.5-9.8.1-13.6c0 0-6 1.9-7.3-8.8-.7-5.3 7.3-7.8 9.5-1.4l5 .5s.4-20 11.9-16.3c0 0 8.3 5.1 13.3 2 5-3.1 4.6-4.2 4.6-4.2s2.4 5.3 8.8 1.8 7.2-9.6 5-12.5c-1.3-1.7-2.5-3.6-4.6-4-2.1-.4-4.4.5-5.7 2.1 1.6-2.3.5-5.7-1.9-7.3-2.3-1.5-5.4-1.4-8-.4-2.6 1-4.8 2.8-6.9 4.6-1.5-4.2-6-7.2-10.4-6.8-4.5.4-8.4 4-9.2 8.4-2.4-3-7-3.7-10.5-2s-5.7 5.3-6.4 9.1c-.7 3.8.1 7.7 1.6 11.3-2.7-1.5-6.4-.4-8.2 2.1-1.8 2.5-1.8 6-.5 8.8s3.8 4.9 6.5 6.3c-2 1.6-2.7 4.8-1.4 7.1 1.3 2.3 4.3 3.5 6.7 2.6"/><path class="st2" d="M527.8 295.7s8.1-37.3 47.2-33.4l35.8 3.6s24.6 10.4 21.1 39.7c-3.4 29.3-5.1 56.1-4.2 61.2.9 5.2 9.5 51.3 6.9 54.5-25.8 31.4-91.7-18.7-91.7-18.7l-15.1-106.9z"/><path class="st3" d="m575 262.3-9.1 217.9-27.1-14.7 2.8-193.3s7.3-12.5 33.4-9.9z"/><path class="st3" d="m518.5 477.7 9.3-182.1c2.9-11.2 9.1-19.8 17.1-27v211.5l-26.4-2.4zM603.3 265s24.4 12.1 23.3 53c-1.2 40.9 14.7 156.5 14.7 156.5l20.4-4.1s-23.6-109.6-24.6-128.8c-1-19.6.7-47.3-12.5-66.4-9.5-13.7-21.3-10.2-21.3-10.2z"/><path class="st4" d="M575 262.3s-8 18-7.2 24.5c.8 6.6 3.6 20.4 3.6 20.4s-5.9 3.6-5.4 6.7c.4 3.1 5.1 52.1 5.1 52.1l3.9-103.7zM544.9 480.2c2.5-44 1.9-129.4 4.4-173.5"/><path class="st1" d="M616.4 684.2c-.4-.2 8.3-33.1 8.3-33.1l-28.9-8.4-6.1 30.8 26.7 10.7zM549.8 662.4h32.9v25.8h-32.9z"/><path class="st4" d="m585.9 702.2-3-15.6h-35.5l3.7 23 1.9.1c8.1.4 47.6 2.5 53 .9 6.2-1.9-20.1-8.4-20.1-8.4z"/><path class="st3" d="m307.9 196 8.4 28.2c.4 1.3.8 2.6.7 3.9-.1 4-3.8 7.1-7.7 7.8-3.9.7-7.9-.3-11.7-1.4-1 4-5.8 5.7-9.9 6.5-18.2 3.4-37.5 1-54.3-6.8 7.2-10.4 13.1-21.6 17.5-33.5 14.3.6 28.6 1.3 42.9 1.9 2.5.1 5.1.2 7.5-.6 2.4-.9 4.5-2.9 4.7-5.4"/><path d="m141.9 319.7-4.2-4.9s-3-2.5-7.3-8.1c-1.1-1.4-1.9-3.1-2.5-4.8-.7-2.1-1.5-4.9-1.4-6.6.1-2.1-2.4-3.1-3.6-1.6-1.2 1.5-1.4 7.2 1.2 13.3 2.6 6.1-6.7 1.3-10.1-.5-3.4-1.7-14.2-6.5-15.6-5.9-2 .9-1.4 3.2 2.1 4.9 3.5 1.7 13.4 7.3 12.5 9-1 1.7-18.2-7.2-18.2-7.2s-3.4-2.5-4.6-.5c-2.2 3.6 16.9 11.8 18.7 12.5 1.3.5.3 2.5-1.1 1.8-1.4-.6-17-9.3-19.3-5.7-1.7 2.8 15.6 6.9 17.8 10.5 2.2 3.6-12.8-4.4-14.4-1.7-.6 1-.9 1.9 8.5 5.2 9.5 3.4 36.9 8.6 36.9 8.6l4.4-18.8" style="fill:#ff957e"/><path class="st8" d="M219.2 275.3s-15.6 45.1-20.4 45.5c-32.9 3-68.7-11.2-68.7-11.2l-9 25.4s93.2 41.7 113.2 1.5c21.3-42.6 20.2-49.3 20.2-49.3l-35.3-11.9z"/><path class="st4" d="M221.3 530.3c16.7 76.7 126.5 148 126.5 148l18.7-22.9s-88.3-78.7-92-113.7c-3.8-35 25.5-89.9 25.5-89.9l-30.4-12.9-48.3 91.4z"/><path class="st5" d="M258.4 251c.5-3.2-.7-16.4-.7-16.4s-12.1-1.3-12.8-13.3c-.7-12 0-39.6 0-39.6l22-10.8 24.2 18.3-3.7 59.9-29 1.9z"/><path class="st3" d="M289.4 198.6s-19.8-1.9-23.2-19.8l-21.4 19.8s-6.5-13.3 5.4-25.6 20-9.8 24.7-9.8c4.3 0 26.3 4.7 32.8 29.6.5 1.8.9 6.3 1.2 8.3l-19.5-2.5z"/><path class="st8" d="M257.8 234.7s8.1.1 15.9-5.4c0 0-3.6 8.8-15.6 8.3l-.3-2.9z"/><path class="st2" d="M232.9 386.1c0 4.3 1.5 10.2 1.5 10.2l85 24.5s6.1-38.4-9.4-59.8c-7.1-9.8-5.5-23.6-2.6-35.4l10-40.3-13.4-37.9-53.5 3.6s-31-3.1-41.8 37.9l19.9 29.9.2 11.3 4.1 56z"/><path class="st3" d="M315.8 371.1c.9 0 16.3 34.5 2.4 55-1.3 1.9-4.5 6.6-8.8 13.3-20.6 31.6-67.6 105.9-69.2 116.8-1.9 13.2-39.9 151.7-39.9 151.7l-28.3-4.5 23.1-157.1 37.8-160.2 82.9-15zM266.7 177.4s-4.4 8.5-2.5 14.9l-19.2 5c0-.1-4.4-24.4 21.7-19.9zM307.9 199.3s2.2 27.6-19.1 32.5l1.4-33.3 17.7.8z"/><path class="st2" d="M220.7 327.9 173 348l-78.1 1.7-38-64.5 80.3-5.4 34.8 62.4 48.4-18.8z"/><path class="st2" d="m212.1 280.5-13.4 32.7 30 14.9 2.8-28.6z"/><path class="st5" d="m269.9 245-10.9 4.7 2.2 22L275 247z"/><path class="st3" d="M169.4 703.4s-24.9 6.6-18.7 8.5c6.2 1.9 49.3-2.8 49.3-2.8l1.4-4.9-32-.8z"/><path class="st3" d="m200 709.1 8.8-23.7h-38.2l-1.2 18z"/><path class="st4" d="M348.1 679.9s-6.3 25-1.6 20.5c4.6-4.5 21.6-44.4 21.6-44.4l-3.6-3.6-16.4 27.5z"/><path class="st4" d="m368 656-16.5-19.2-18.5 33.3 15.1 9.8z"/><path class="st5" d="M292.5 213.7c-.1-2-.1-4.1.6-5.9.7-1.9 2.3-3.5 4.3-3.7 2.3-.2 4.5 1.7 4.9 3.9.4 2.3-1 4.6-3 5.8-2 1.1-4.5 1.1-6.7.2"/><path class="st3" d="M278.9 387.7s-1.1-110.7 2.8-119.1c0 0 4.1-20.8 20-21.2l-7.1.6s-14.4-1-18.6 27.3c-4.1 28.3-3.9 113.3-3.9 113.3l6.8-.9zM248.1 391.6s-4.3-127.2-.9-140.6h-4.3s-3.8 10.9-3.1 41.4c.5 18.3 0 99.2 0 99.2h8.3z"/><path class="st5" d="M197.4 335.2s-20.8 13.2-25.4 13.1c-4.5-.1-17.6-.4-16.2 1.4 1.4 1.8 16.2 4.3 16.2 4.3l25.4-18.8z"/><path class="st5" d="M198.9 363s98.5 26.5 112-16.3c14.3-45.4 14.5-33.6 14.5-33.6l-30.9-29.8s-16.6 52.4-21.3 53.6c-25.9 6.6-55.3 2.4-65.7.5-1.2-1-2.5-2.1-4.1-3.6-1.3-1.2-2.4-2.7-3.2-4.3-1-2-2.2-4.6-2.4-6.3-.3-2.1-2.9-2.7-3.8-1.1-.9 1.6-.3 7.3 3.3 12.9 0 0-23.5 15.1-25.4 18.7l27 9.3z"/><path class="st2" d="M304 247.4s22.5 4.3 23.4 39.7c.9 35.4-13.4 62.5-13.4 62.5l-38.2-19.9 28.2-82.3"/><path class="st11" d="M500.2 596.8H397c-4.8 0-8.7-3.9-8.7-8.7 0-4.8 3.9-8.7 8.7-8.7h103.1c4.8 0 8.7 3.9 8.7 8.7.1 4.8-3.8 8.7-8.6 8.7z"/><path transform="rotate(-90 471.578 702.35)" class="st4" d="M467.2 658h8.8v88.8h-8.8z"/><path class="st4" d="M435.4 705c.8 4.6-2.3 8.9-6.9 9.6-4.6.8-8.9-2.3-9.6-6.9-.8-4.6 2.3-8.9 6.9-9.6 4.6-.8 8.9 2.3 9.6 6.9zM466.8 591.1h8.8v110.4h-8.8zM524.2 705c.8 4.6-2.3 8.9-6.9 9.6-4.6.8-8.9-2.3-9.6-6.9-.8-4.6 2.3-8.9 6.9-9.6 4.6-.8 8.9 2.3 9.6 6.9z"/><path class="st11" d="M527.2 596.8h-97.4c-6.6 0-11.4-6.5-9.5-13l46.5-160.4c1.2-4.3 5.1-7.3 9.5-7.3h97.4c6.6 0 11.4 6.5 9.5 13l-46.5 160.4c-1.2 4.4-5.1 7.3-9.5 7.3z"/><path class="st12" d="M513.8 596.8h-84.9c-6.6 0-11.4-6.5-9.5-13l46.5-160.4c1.2-4.3 5.1-7.3 9.5-7.3h84.9c6.6 0 11.4 6.5 9.5 13l-46.5 160.4c-1.2 4.4-5.1 7.3-9.5 7.3z"/><path class="st11" d="M527.2 596.8H424c-4.8 0-8.7-3.9-8.7-8.7 0-4.8 3.9-8.7 8.7-8.7h103.1c4.8 0 8.7 3.9 8.7 8.7.1 4.8-3.8 8.7-8.6 8.7z"/><path class="st8" d="M441.9 460.6 419 521.5l5.4 11.9 30.9-5.4 8.8-65.1z"/><path class="st13" d="M455.8 431s-18.1 9.5-22.1 40.7l23.9 13.1-1.8-53.8z"/><path class="st13" d="m485 419.1-28.5 12L434 531.2l75.2 29.6 40.1-114.2s-6.5-23.8-44.1-29.9l-20.2 2.4z"/><path class="st5" d="M561 536.6c0-1.3-.8-9.2-1.2-10.5l-12.4-79.3c-2.4-10.9-14.6-16.4-24.3-11-7.2 4-10.4 12.5-7.6 20.2l14.7 68.1 30.8 12.5z"/><path class="st5" d="m544.1 519.7-83.9-6.5L456 528l80.8 27.3c12.4 4.2 25.1-5.6 24.2-18.7-.6-9-7.8-16.2-16.9-16.9z"/><path class="st13" d="M539 433.4s10.7 4.6 15.3 32.4l-37.8 11.6s-24.7-27.7 1.7-46.2l20.8 2.2z"/><path class="st5" d="M433.9 528.9c3.1 8.2 18.6 8.6 26.9 5.5 8.2-3.1 16.7-7.8 13.6-16.1-3.1-8.2-16.8-13.1-25.8-11.1-10.9 2.5-17.8 13.4-14.7 21.7z"/><path class="st12" d="m479.6 540.1-59.9-7.7.9-6.8 59.9 7.7c1.9.2 3.2 1.9 2.9 3.8-.3 1.9-2 3.2-3.8 3z"/><path class="st12" d="m427.6 533.4-79.4-10.2c-4.6-.6-8.2-4.1-8.8-8.7l-8.3-57.6c-.7-5.1 3.6-9.5 8.7-8.8l72.9 9.4c3.1.4 5.5 2.8 5.9 5.8l9 70.1z"/><path class="st4" d="m332.7 685.5-20.6 8.5-13 1c-6 .4-11 4.8-12.2 10.6l-.6 2.7 70.6 8.8 1.4-28.4-25.6-3.2z"/><path class="st5" d="m358.3 688.7 6.9-30.9-25.5-3.5-7 31.2z"/><path class="st4" d="M509.2 560.8s-2 17.1-32.7 19.4h-73.8l-34.8 97.1-36.6-5.9 36.6-142.6 83.9 9.3 57.4 22.7z"/><path class="st3" d="m273.6 629.7-22.1-3.3-11.7-5.9c-5.4-2.7-11.9-1.5-16 2.8l-1.9 2 56 43.8 15.8-23.6-20.1-15.8z"/><path class="st5" d="m293.9 645.6 19.2-24.4-20.2-16.1-19.3 24.6z"/><path class="st3" d="m434 531.2-56.9-17c-2.4-.7-4.7-1.6-7.1-2.4-4.9-1.9-17.3-4.5-26.9 10.2-12.3 18.9-61.6 89.9-61.6 89.9l30.1 22.2 65.7-83.7c5.5-7.6 14.3-12.1 23.7-12.1l50.8-.1-17.8-7z"/><path class="st2" d="M507.2 387.9c1-1.9 18.6-33.3 2.5-41.2 0 0-2.1-16.6-20.6-14.8-18.5 1.8-13.5 7.2-25.3 4.5s-22.9 3.4-22 13.3c.9 9.9 8.4 14.1 22 11.7 13.6-2.4 24.4-.6 24.4-.6l11.4 3.3 7.6 23.8z"/><path class="st5" d="M509.4 421.9 508 382l-27.6 9.8 2.2 32c.5 7.4 4.6 13.2 12 12.7l2.3-.1c7.4-.7 13-7.1 12.5-14.5z"/><path class="st8" d="M505.6 387.5s5.2 33.3-23.2 35.2l-1.3-15.8 24.5-19.4z"/><path class="st5" d="M482.2 415.3h1c14.2-.7 25.1-12.7 24.4-26.9l-1.4-29c-.2-3.7-3.3-6.5-7-6.3l-33.8 1.6c-6.5.3-11.6 5.9-11.3 12.4l1.1 23.7c.8 14.2 12.8 25.1 27 24.5z"/><path class="st5" d="M501.1 379.7c.2 4.8 4.3 8.5 9.1 8.2 4.8-.2 8.5-4.3 8.2-9.1-.2-4.8-4.3-8.5-9.1-8.2-4.7.2-8.4 4.3-8.2 9.1z"/><path class="st2" d="m497 356.5 1.7 32.3c.2 2.9-1 5.9-3.5 7.5-1.5 1.1-2.7 2.5-5.4 2.1-7.7-1.1-4.1-6.8-19.8-6-14.3.8-13.2 8.7-13.2 8.7s2.8 15.1 22.4 15.8c19.6.7 29.4-11.7 27.1-28.2l-1.9-34.1-7.4 1.9z"/><path class="st2" d="M455.1 362s9.1 1.4 22.4-1.8c13.2-3.3 23.7 7.4 23.7 7.4s2.8 4.9 3.5 4.8c.7-.1 4.7-1.7 4.7-1.7l-.2-14.9-9.7-7.6-26.9-1.1-15.9 3.5-1.6 11.4z"/></svg>